<svg xmlns="http://www.w3.org/2000/svg" version="1.1" xmlns:xlink="http://www.w3.org/1999/xlink" xmlns:svgjs="http://svgjs.dev/svgjs" viewBox="0 0 800 800"><g stroke="#fb2c36" fill="none" stroke-linecap="round"><circle r="363" cx="400" cy="400" stroke-width="11" stroke-dasharray="55 40" stroke-dashoffset="25" transform="rotate(181, 400, 400)" opacity="0.05"></circle><circle r="346.5" cx="400" cy="400" stroke-width="11" stroke-dasharray="26 18" stroke-dashoffset="25" transform="rotate(173, 400, 400)" opacity="0.10"></circle><circle r="330" cx="400" cy="400" stroke-width="10" stroke-dasharray="50 52" stroke-dashoffset="25" transform="rotate(303, 400, 400)" opacity="0.14"></circle><circle r="313.5" cx="400" cy="400" stroke-width="10" stroke-dasharray="43 39" stroke-dashoffset="25" transform="rotate(41, 400, 400)" opacity="0.19"></circle><circle r="297" cx="400" cy="400" stroke-width="10" stroke-dasharray="49 33" stroke-dashoffset="25" transform="rotate(93, 400, 400)" opacity="0.23"></circle><circle r="280.5" cx="400" cy="400" stroke-width="10" stroke-dasharray="31 26" stroke-dashoffset="25" transform="rotate(139, 400, 400)" opacity="0.28"></circle><circle r="264" cx="400" cy="400" stroke-width="9" stroke-dasharray="26 54" stroke-dashoffset="25" transform="rotate(80, 400, 400)" opacity="0.32"></circle><circle r="247.5" cx="400" cy="400" stroke-width="9" stroke-dasharray="49 19" stroke-dashoffset="25" transform="rotate(212, 400, 400)" opacity="0.37"></circle><circle r="231" cx="400" cy="400" stroke-width="9" stroke-dasharray="37 19" stroke-dashoffset="25" transform="rotate(8, 400, 400)" opacity="0.41"></circle><circle r="214.5" cx="400" cy="400" stroke-width="8" stroke-dasharray="45 29" stroke-dashoffset="25" transform="rotate(328, 400, 400)" opacity="0.46"></circle><circle r="198" cx="400" cy="400" stroke-width="8" stroke-dasharray="28 38" stroke-dashoffset="25" transform="rotate(157, 400, 400)" opacity="0.50"></circle><circle r="181.5" cx="400" cy="400" stroke-width="8" stroke-dasharray="33 32" stroke-dashoffset="25" transform="rotate(76, 400, 400)" opacity="0.55"></circle><circle r="165" cx="400" cy="400" stroke-width="8" stroke-dasharray="20 48" stroke-dashoffset="25" transform="rotate(242, 400, 400)" opacity="0.59"></circle><circle r="148.5" cx="400" cy="400" stroke-width="7" stroke-dasharray="28 18" stroke-dashoffset="25" transform="rotate(138, 400, 400)" opacity="0.64"></circle><circle r="132" cx="400" cy="400" stroke-width="7" stroke-dasharray="54 29" stroke-dashoffset="25" transform="rotate(191, 400, 400)" opacity="0.68"></circle><circle r="115.5" cx="400" cy="400" stroke-width="7" stroke-dasharray="27 11" stroke-dashoffset="25" transform="rotate(107, 400, 400)" opacity="0.73"></circle><circle r="99" cx="400" cy="400" stroke-width="6" stroke-dasharray="44 35" stroke-dashoffset="25" transform="rotate(91, 400, 400)" opacity="0.77"></circle><circle r="82.5" cx="400" cy="400" stroke-width="6" stroke-dasharray="39 51" stroke-dashoffset="25" transform="rotate(348, 400, 400)" opacity="0.82"></circle><circle r="66" cx="400" cy="400" stroke-width="6" stroke-dasharray="34 20" stroke-dashoffset="25" transform="rotate(85, 400, 400)" opacity="0.86"></circle><circle r="49.5" cx="400" cy="400" stroke-width="6" stroke-dasharray="53 38" stroke-dashoffset="25" transform="rotate(292, 400, 400)" opacity="0.91"></circle><circle r="33" cx="400" cy="400" stroke-width="5" stroke-dasharray="36 51" stroke-dashoffset="25" transform="rotate(195, 400, 400)" opacity="0.95"></circle><circle r="16.5" cx="400" cy="400" stroke-width="5" stroke-dasharray="38 18" stroke-dashoffset="25" transform="rotate(225, 400, 400)" opacity="1.00"></circle></g></svg>