<svg xmlns="http://www.w3.org/2000/svg" version="1.1" xmlns:xlink="http://www.w3.org/1999/xlink" xmlns:svgjs="http://svgjs.dev/svgjs" viewBox="0 0 1422 800"><g fill="none" stroke-width="3" stroke="#fb2c36" stroke-linecap="round"><line x1="703.5" y1="400" x2="718.5" y2="400" transform="rotate(0, 711, 400)" opacity="0.75"></line><line x1="1168" y1="400" x2="254" y2="400" transform="rotate(4, 711, 400)" opacity="0.42"></line><line x1="1228.5" y1="400" x2="193.5" y2="400" transform="rotate(8, 711, 400)" opacity="0.89"></line><line x1="1234" y1="400" x2="188" y2="400" transform="rotate(12, 711, 400)" opacity="0.57"></line><line x1="645" y1="400" x2="777" y2="400" transform="rotate(16, 711, 400)" opacity="0.19"></line><line x1="1063" y1="400" x2="359" y2="400" transform="rotate(20, 711, 400)" opacity="0.53"></line><line x1="744.5" y1="400" x2="677.5" y2="400" transform="rotate(24, 711, 400)" opacity="0.20"></line><line x1="708" y1="400" x2="714" y2="400" transform="rotate(28, 711, 400)" opacity="0.44"></line><line x1="1119.5" y1="400" x2="302.5" y2="400" transform="rotate(32, 711, 400)" opacity="0.57"></line><line x1="1354" y1="400" x2="68" y2="400" transform="rotate(36, 711, 400)" opacity="0.51"></line><line x1="872" y1="400" x2="550" y2="400" transform="rotate(40, 711, 400)" opacity="0.57"></line><line x1="704.5" y1="400" x2="717.5" y2="400" transform="rotate(44, 711, 400)" opacity="0.97"></line><line x1="1364.5" y1="400" x2="57.5" y2="400" transform="rotate(48, 711, 400)" opacity="0.14"></line><line x1="1281" y1="400" x2="141" y2="400" transform="rotate(52, 711, 400)" opacity="0.84"></line><line x1="1267" y1="400" x2="155" y2="400" transform="rotate(56, 711, 400)" opacity="0.11"></line><line x1="1167.5" y1="400" x2="254.5" y2="400" transform="rotate(60, 711, 400)" opacity="0.37"></line><line x1="1214" y1="400" x2="208" y2="400" transform="rotate(64, 711, 400)" opacity="0.93"></line><line x1="1213" y1="400" x2="209" y2="400" transform="rotate(68, 711, 400)" opacity="0.78"></line><line x1="843" y1="400" x2="579" y2="400" transform="rotate(72, 711, 400)" opacity="0.82"></line><line x1="1068" y1="400" x2="354" y2="400" transform="rotate(76, 711, 400)" opacity="0.16"></line><line x1="1191" y1="400" x2="231" y2="400" transform="rotate(80, 711, 400)" opacity="0.98"></line><line x1="1253" y1="400" x2="169" y2="400" transform="rotate(84, 711, 400)" opacity="0.22"></line><line x1="1080.5" y1="400" x2="341.5" y2="400" transform="rotate(88, 711, 400)" opacity="0.45"></line><line x1="776" y1="400" x2="646" y2="400" transform="rotate(92, 711, 400)" opacity="0.71"></line><line x1="1148.5" y1="400" x2="273.5" y2="400" transform="rotate(96, 711, 400)" opacity="0.60"></line><line x1="1306.5" y1="400" x2="115.5" y2="400" transform="rotate(100, 711, 400)" opacity="0.07"></line><line x1="854.5" y1="400" x2="567.5" y2="400" transform="rotate(104, 711, 400)" opacity="0.41"></line><line x1="1302" y1="400" x2="120" y2="400" transform="rotate(108, 711, 400)" opacity="0.74"></line><line x1="991" y1="400" x2="431" y2="400" transform="rotate(112, 711, 400)" opacity="0.10"></line><line x1="923.5" y1="400" x2="498.5" y2="400" transform="rotate(116, 711, 400)" opacity="0.71"></line><line x1="712" y1="400" x2="710" y2="400" transform="rotate(120, 711, 400)" opacity="0.38"></line><line x1="1215.5" y1="400" x2="206.5" y2="400" transform="rotate(124, 711, 400)" opacity="0.91"></line><line x1="1060" y1="400" x2="362" y2="400" transform="rotate(128, 711, 400)" opacity="0.98"></line><line x1="1250.5" y1="400" x2="171.5" y2="400" transform="rotate(132, 711, 400)" opacity="0.68"></line><line x1="824" y1="400" x2="598" y2="400" transform="rotate(136, 711, 400)" opacity="0.44"></line><line x1="1008" y1="400" x2="414" y2="400" transform="rotate(140, 711, 400)" opacity="0.77"></line><line x1="861.5" y1="400" x2="560.5" y2="400" transform="rotate(144, 711, 400)" opacity="0.67"></line><line x1="882" y1="400" x2="540" y2="400" transform="rotate(148, 711, 400)" opacity="0.52"></line><line x1="1010.5" y1="400" x2="411.5" y2="400" transform="rotate(152, 711, 400)" opacity="0.33"></line><line x1="1039" y1="400" x2="383" y2="400" transform="rotate(156, 711, 400)" opacity="0.97"></line><line x1="1071" y1="400" x2="351" y2="400" transform="rotate(160, 711, 400)" opacity="0.89"></line><line x1="809.5" y1="400" x2="612.5" y2="400" transform="rotate(164, 711, 400)" opacity="0.84"></line><line x1="968.5" y1="400" x2="453.5" y2="400" transform="rotate(168, 711, 400)" opacity="0.46"></line><line x1="840" y1="400" x2="582" y2="400" transform="rotate(172, 711, 400)" opacity="0.35"></line><line x1="754" y1="400" x2="668" y2="400" transform="rotate(176, 711, 400)" opacity="0.84"></line><line x1="1331.5" y1="400" x2="90.5" y2="400" transform="rotate(180, 711, 400)" opacity="0.70"></line><line x1="1052.5" y1="400" x2="369.5" y2="400" transform="rotate(184, 711, 400)" opacity="0.62"></line><line x1="901.5" y1="400" x2="520.5" y2="400" transform="rotate(188, 711, 400)" opacity="0.87"></line><line x1="1219" y1="400" x2="203" y2="400" transform="rotate(192, 711, 400)" opacity="0.30"></line><line x1="725" y1="400" x2="697" y2="400" transform="rotate(196, 711, 400)" opacity="0.52"></line><line x1="1293.5" y1="400" x2="128.5" y2="400" transform="rotate(200, 711, 400)" opacity="0.10"></line><line x1="803.5" y1="400" x2="618.5" y2="400" transform="rotate(204, 711, 400)" opacity="0.84"></line><line x1="660" y1="400" x2="762" y2="400" transform="rotate(208, 711, 400)" opacity="0.53"></line><line x1="802" y1="400" x2="620" y2="400" transform="rotate(212, 711, 400)" opacity="0.37"></line><line x1="1035.5" y1="400" x2="386.5" y2="400" transform="rotate(216, 711, 400)" opacity="0.57"></line><line x1="731" y1="400" x2="691" y2="400" transform="rotate(220, 711, 400)" opacity="0.94"></line><line x1="1108.5" y1="400" x2="313.5" y2="400" transform="rotate(224, 711, 400)" opacity="0.94"></line><line x1="901.5" y1="400" x2="520.5" y2="400" transform="rotate(228, 711, 400)" opacity="0.30"></line><line x1="876.5" y1="400" x2="545.5" y2="400" transform="rotate(232, 711, 400)" opacity="0.76"></line><line x1="862.5" y1="400" x2="559.5" y2="400" transform="rotate(236, 711, 400)" opacity="0.22"></line><line x1="1250" y1="400" x2="172" y2="400" transform="rotate(240, 711, 400)" opacity="0.33"></line><line x1="867" y1="400" x2="555" y2="400" transform="rotate(244, 711, 400)" opacity="0.43"></line><line x1="1077" y1="400" x2="345" y2="400" transform="rotate(248, 711, 400)" opacity="0.32"></line><line x1="1104.5" y1="400" x2="317.5" y2="400" transform="rotate(252, 711, 400)" opacity="0.85"></line><line x1="1201.5" y1="400" x2="220.5" y2="400" transform="rotate(256, 711, 400)" opacity="0.22"></line><line x1="1225" y1="400" x2="197" y2="400" transform="rotate(260, 711, 400)" opacity="0.27"></line><line x1="1192.5" y1="400" x2="229.5" y2="400" transform="rotate(264, 711, 400)" opacity="0.30"></line><line x1="1031" y1="400" x2="391" y2="400" transform="rotate(268, 711, 400)" opacity="0.88"></line><line x1="815.5" y1="400" x2="606.5" y2="400" transform="rotate(272, 711, 400)" opacity="0.57"></line><line x1="1135.5" y1="400" x2="286.5" y2="400" transform="rotate(276, 711, 400)" opacity="0.96"></line><line x1="1281" y1="400" x2="141" y2="400" transform="rotate(280, 711, 400)" opacity="0.70"></line><line x1="917" y1="400" x2="505" y2="400" transform="rotate(284, 711, 400)" opacity="0.68"></line><line x1="985" y1="400" x2="437" y2="400" transform="rotate(288, 711, 400)" opacity="0.18"></line><line x1="1117" y1="400" x2="305" y2="400" transform="rotate(292, 711, 400)" opacity="0.55"></line><line x1="670" y1="400" x2="752" y2="400" transform="rotate(296, 711, 400)" opacity="0.77"></line><line x1="1105" y1="400" x2="317" y2="400" transform="rotate(300, 711, 400)" opacity="0.15"></line><line x1="668.5" y1="400" x2="753.5" y2="400" transform="rotate(304, 711, 400)" opacity="0.16"></line><line x1="1098" y1="400" x2="324" y2="400" transform="rotate(308, 711, 400)" opacity="0.62"></line><line x1="792.5" y1="400" x2="629.5" y2="400" transform="rotate(312, 711, 400)" opacity="0.07"></line><line x1="1168" y1="400" x2="254" y2="400" transform="rotate(316, 711, 400)" opacity="0.12"></line><line x1="985" y1="400" x2="437" y2="400" transform="rotate(320, 711, 400)" opacity="0.11"></line><line x1="1332" y1="400" x2="90" y2="400" transform="rotate(324, 711, 400)" opacity="0.48"></line><line x1="778" y1="400" x2="644" y2="400" transform="rotate(328, 711, 400)" opacity="0.31"></line><line x1="991" y1="400" x2="431" y2="400" transform="rotate(332, 711, 400)" opacity="0.27"></line><line x1="1277.5" y1="400" x2="144.5" y2="400" transform="rotate(336, 711, 400)" opacity="0.58"></line><line x1="713" y1="400" x2="709" y2="400" transform="rotate(340, 711, 400)" opacity="0.11"></line><line x1="1085" y1="400" x2="337" y2="400" transform="rotate(344, 711, 400)" opacity="0.86"></line><line x1="884.5" y1="400" x2="537.5" y2="400" transform="rotate(348, 711, 400)" opacity="0.15"></line></g></svg>